<svg width="58" height="62" viewBox="0 0 58 62" fill="none" xmlns="http://www.w3.org/2000/svg">
<path d="M45.124 47.8851C44.7071 48.2268 44.5124 48.7481 44.6006 49.2664L46.04 57.34L37.8359 52.6314C37.4464 52.4084 36.9717 52.3563 36.5395 52.4924C34.0777 53.254 31.4972 53.6391 28.868 53.6391C15.5454 53.6391 4.63295 43.6282 3.99999 31.0978H4.28299H4.28604H53.739C53.4073 37.5643 50.3094 43.6282 45.124 47.8851ZM5.5337 20.1081C6.36142 19.1901 7.3991 18.527 8.61633 18.136C11.1512 17.3223 14.0026 17.8435 15.5515 18.5154C14.0178 21.0985 14.0726 24.0262 14.0786 24.1797C14.0999 25.005 14.8211 25.6565 15.6884 25.6334C16.5527 25.6102 17.2343 24.9181 17.2161 24.1044C17.2161 24.0522 17.1765 20.806 19.0936 18.944C20.0157 18.0491 21.242 17.6148 22.8488 17.6148C23.7161 17.6148 24.419 16.9458 24.419 16.1205C24.419 15.2952 23.7161 14.6263 22.8488 14.6263C20.7917 14.6263 19.0449 15.1504 17.639 16.1871C15.8862 15.2141 12.7123 14.3975 9.48969 14.8724C9.43187 12.7295 10.1409 10.9833 11.6107 9.67435C15.6093 6.10088 20.9651 7.52853 21.1903 7.59224C21.9572 7.80364 22.7757 7.43586 23.0831 6.73217C23.1409 6.60475 24.6107 3.42801 28.0311 3.03127C29.7931 2.82567 31.7132 3.66547 33.18 4.83249C31.8776 5.55066 31.0468 6.28331 30.9951 6.32964C30.3621 6.89433 30.3317 7.83838 30.9251 8.44072C31.5185 9.04306 32.5105 9.07201 33.1435 8.51022C33.1526 8.50153 34.5159 7.31133 36.3356 6.72637C37.9272 6.21091 39.2966 6.31516 40.5321 7.04492C42.8935 8.44072 44.555 10.9196 45.4801 14.4206C44.482 14.6552 43.5842 14.9738 42.8448 15.2894C41.7675 14.7739 40.7085 14.5423 39.9508 14.4959C39.0835 14.4409 38.338 15.0664 38.2802 15.8888C38.2163 16.7113 38.8736 17.4179 39.7348 17.4758C39.9234 17.4903 40.8485 17.5916 41.8071 18.136C41.8923 18.1997 41.9836 18.2547 42.0779 18.3011C42.8813 18.831 43.6634 19.6998 44.0042 21.1187C44.1989 21.9238 45.0419 22.4248 45.8878 22.2394C46.6151 22.0802 47.1051 21.4663 47.1051 20.7857C47.1051 20.6757 47.0929 20.5627 47.0655 20.4498C46.7764 19.248 46.2652 18.2721 45.6353 17.4816C46.2165 17.3136 46.8586 17.1717 47.522 17.1051C48.6692 16.9922 49.7039 17.1225 50.5924 17.496C52.2296 18.1824 53.4834 19.7085 53.8698 21.4865C54.2015 23.0097 54.0494 25.367 51.5997 28.1122H32.2914C32.5257 27.1856 32.6292 26.2936 32.6292 25.4509C32.6292 21.391 30.3499 18.4719 30.2191 18.3069C29.6957 17.6495 28.7097 17.5221 28.0189 18.0202C27.3282 18.5183 27.1943 19.4536 27.7146 20.1081C27.8455 20.2761 30.5325 23.7945 29.0262 28.1093H5.29026C4.34995 25.8013 3.50397 22.3611 5.5337 20.1081ZM56.9068 29.9395C56.9068 29.8063 56.9068 29.6702 56.9007 29.5428C56.8703 28.7783 56.2373 28.1643 55.4461 28.1093C56.5599 26.3429 57.135 24.4982 57.135 22.6825C57.135 22.0744 57.0711 21.472 56.9403 20.8755C56.353 18.1679 54.4024 15.8222 51.8523 14.7566C50.8572 14.3396 49.7739 14.1166 48.6175 14.0818C47.5159 9.59906 45.3553 6.37888 42.1844 4.50526C40.4499 3.48303 38.4628 3.18186 36.3843 3.61623C34.3059 1.46462 31.0133 -0.325021 27.6507 0.0659189C23.9291 0.4974 21.7807 2.97914 20.8099 4.46472C18.5002 4.10563 13.5035 3.87976 9.45926 7.49378C6.63529 10.0132 6.16362 13.2073 6.40098 15.7759C5.15636 16.3493 4.0639 17.1485 3.14793 18.1621C0.421344 21.1969 0.966048 25.2048 1.98243 28.1615C1.34339 28.3323 0.865633 28.8796 0.838245 29.5399C0.832159 29.6702 0.832153 29.8034 0.832153 29.9395C0.832153 44.6533 13.4092 56.6219 28.871 56.6219C31.5854 56.6219 34.2542 56.2541 36.8195 55.533L47.3516 61.5767C47.878 61.8778 48.5384 61.8605 49.0466 61.5332C49.5547 61.206 49.8134 60.6239 49.7099 60.0476L47.8445 49.5792C53.6172 44.5346 56.9068 37.4253 56.9068 29.9395Z" fill="white"/>
</svg>
