<svg width="170" height="33" viewBox="0 0 170 33" fill="none" xmlns="http://www.w3.org/2000/svg">
<path d="M44.3711 25H38.6641V7H44.3711C46.1445 7 47.7148 7.38672 49.082 8.16016C50.457 8.93359 51.5156 10 52.2578 11.3594C53 12.7109 53.3711 14.2422 53.3711 15.9531C53.3711 17.2422 53.1523 18.4453 52.7148 19.5625C52.2852 20.6719 51.6797 21.6289 50.8984 22.4336C50.125 23.2305 49.1758 23.8594 48.0508 24.3203C46.9258 24.7734 45.6992 25 44.3711 25ZM44.3711 9.88281H41.7812V22.1172H44.3711C46.0742 22.1172 47.4688 21.5508 48.5547 20.418C49.6094 19.293 50.1367 17.8125 50.1367 15.9766C50.1367 14.1562 49.6094 12.6836 48.5547 11.5586C47.4844 10.4414 46.0898 9.88281 44.3711 9.88281ZM60.1562 25H57.0391V7H60.1562V25ZM67.0703 15.9531C67.0703 17.8672 67.5977 19.4102 68.6523 20.582C69.7227 21.7695 71.1055 22.3633 72.8008 22.3633C74.2852 22.3633 75.5117 21.9922 76.4805 21.25C77.457 20.5 77.9453 19.5273 77.9453 18.332H71.1016V15.5664H81.1797V17.0547C81.1797 19.5156 80.4141 21.4961 78.8828 22.9961C77.3516 24.4883 75.3242 25.2344 72.8008 25.2344C71.0977 25.2344 69.5625 24.8359 68.1953 24.0391C66.8281 23.2422 65.7578 22.1367 64.9844 20.7227C64.2188 19.3086 63.8359 17.7188 63.8359 15.9531C63.8359 14.6484 64.0625 13.4258 64.5156 12.2852C64.9688 11.1445 65.5898 10.1719 66.3789 9.36719C67.1758 8.55469 68.1328 7.91797 69.25 7.45703C70.3672 6.99609 71.5625 6.76562 72.8359 6.76562C74.8438 6.76562 76.5781 7.26953 78.0391 8.27734C79.4766 9.27734 80.4219 10.5781 80.875 12.1797L77.875 13.0469C77.5938 12.0547 76.9961 11.2383 76.082 10.5977C75.1758 9.95703 74.0938 9.63672 72.8359 9.63672C71.125 9.63672 69.7383 10.2148 68.6758 11.3711C67.6055 12.5352 67.0703 14.0625 67.0703 15.9531ZM87.9766 25H84.8594V7H87.9766V25ZM99.4961 25H96.3789V9.88281H91.0938V7H104.781V9.88281H99.4961V25ZM107.336 25H104.172L111.051 7H114.438L121.328 25H118.012L115.949 19.4336H109.398L107.336 25ZM112.691 10.5742L110.406 16.6914H114.941L112.691 10.5742ZM135.391 25H124.094V7H127.211V22.1172H135.391V25Z" fill="white"/>
<path d="M150.484 25H138.461V7H150.238V9.8125H141.578V14.1953H147.602V17.0078H141.578V22.1875H150.484V25ZM159.473 25H153.766V7H159.473C161.246 7 162.816 7.38672 164.184 8.16016C165.559 8.93359 166.617 10 167.359 11.3594C168.102 12.7109 168.473 14.2422 168.473 15.9531C168.473 17.2422 168.254 18.4453 167.816 19.5625C167.387 20.6719 166.781 21.6289 166 22.4336C165.227 23.2305 164.277 23.8594 163.152 24.3203C162.027 24.7734 160.801 25 159.473 25ZM159.473 9.88281H156.883V22.1172H159.473C161.176 22.1172 162.57 21.5508 163.656 20.418C164.711 19.293 165.238 17.8125 165.238 15.9766C165.238 14.1562 164.711 12.6836 163.656 11.5586C162.586 10.4414 161.191 9.88281 159.473 9.88281Z" fill="#3581FF"/>
<path d="M20.9171 21.7011C20.7253 21.8511 20.6357 22.0799 20.6763 22.3074L21.3384 25.8511L17.5645 23.7844C17.3853 23.6865 17.167 23.6636 16.9682 23.7234C15.8357 24.0576 14.6487 24.2267 13.4393 24.2267C7.31088 24.2267 2.29115 19.8327 1.99999 14.3328H2.13017H2.13157H24.8799C24.7273 17.1711 23.3023 19.8327 20.9171 21.7011ZM2.7055 9.50914C3.08625 9.10621 3.56358 8.81514 4.12351 8.64355C5.28955 8.28638 6.60117 8.51517 7.31368 8.81006C6.60817 9.94384 6.63337 11.2289 6.63617 11.2962C6.64597 11.6585 6.97772 11.9445 7.37667 11.9343C7.77422 11.9241 8.08778 11.6204 8.07938 11.2632C8.07938 11.2403 8.06118 9.81546 8.94306 8.99817C9.3672 8.60542 9.93133 8.41476 10.6704 8.41476C11.0694 8.41476 11.3927 8.12114 11.3927 7.75889C11.3927 7.39664 11.0694 7.10303 10.6704 7.10303C9.72416 7.10303 8.92066 7.33309 8.27395 7.78813C7.46765 7.36105 6.00765 7.00261 4.52525 7.21107C4.49866 6.27049 4.82481 5.50404 5.50092 4.92953C7.34028 3.36104 9.80395 3.98767 9.90753 4.01564C10.2603 4.10842 10.6368 3.947 10.7782 3.63813C10.8048 3.58221 11.4809 2.18786 13.0543 2.01372C13.8648 1.92348 14.7481 2.29208 15.4228 2.80432C14.8237 3.11954 14.4415 3.44112 14.4177 3.46145C14.1266 3.70931 14.1126 4.12367 14.3855 4.38805C14.6585 4.65243 15.1148 4.66514 15.406 4.41856C15.4102 4.41474 16.0373 3.89234 16.8744 3.63559C17.6065 3.40934 18.2364 3.4551 18.8047 3.7754C19.891 4.38805 20.6553 5.47608 21.0808 7.01278C20.6217 7.11574 20.2087 7.25556 19.8686 7.3941C19.3731 7.16785 18.8859 7.06617 18.5374 7.04583C18.1384 7.02168 17.7955 7.29623 17.7689 7.65721C17.7395 8.01819 18.0418 8.32833 18.438 8.35375C18.5248 8.36011 18.9503 8.40459 19.3913 8.64355C19.4305 8.67151 19.4725 8.69566 19.5158 8.716C19.8854 8.9486 20.2451 9.32992 20.4019 9.95274C20.4915 10.3061 20.8793 10.526 21.2684 10.4446C21.603 10.3747 21.8283 10.1053 21.8283 9.80657C21.8283 9.75827 21.8227 9.70869 21.8101 9.65912C21.6771 9.13163 21.442 8.70329 21.1522 8.35629C21.4196 8.28257 21.7149 8.22029 22.0201 8.19105C22.5478 8.14148 23.0238 8.19868 23.4325 8.36264C24.1856 8.66388 24.7623 9.33373 24.9401 10.1142C25.0927 10.7827 25.0227 11.8174 23.8959 13.0223H15.014C15.1218 12.6156 15.1694 12.2241 15.1694 11.8542C15.1694 10.0722 14.121 8.79099 14.0608 8.71854C13.82 8.43001 13.3665 8.37408 13.0487 8.59271C12.731 8.81133 12.6694 9.22188 12.9087 9.50914C12.9689 9.58286 14.205 11.1272 13.512 13.0211H2.59351C2.16097 12.008 1.77182 10.498 2.7055 9.50914ZM26.3371 13.8244C26.3371 13.7659 26.3371 13.7062 26.3343 13.6502C26.3203 13.3147 26.0292 13.0452 25.6652 13.0211C26.1776 12.2457 26.4421 11.4361 26.4421 10.6391C26.4421 10.3722 26.4127 10.1078 26.3525 9.84597C26.0824 8.65753 25.1851 7.62798 24.012 7.16023C23.5543 6.97719 23.056 6.87932 22.524 6.86407C22.0173 4.89648 21.0234 3.48306 19.5648 2.66069C18.7669 2.21201 17.8529 2.07982 16.8968 2.27047C15.9407 1.32608 14.4261 0.540567 12.8793 0.712159C11.1674 0.901546 10.1791 1.99084 9.73256 2.64289C8.6701 2.48528 6.3716 2.38614 4.51125 3.97242C3.21223 5.07824 2.99526 6.48021 3.10444 7.60764C2.53192 7.85931 2.02939 8.21012 1.60804 8.65499C0.353813 9.98706 0.604377 11.7462 1.07191 13.0439C0.777954 13.1189 0.558186 13.3592 0.545588 13.649C0.542788 13.7062 0.542786 13.7646 0.542786 13.8244C0.542786 20.2826 6.32821 25.5359 13.4407 25.5359C14.6893 25.5359 15.9169 25.3745 17.097 25.058L21.9417 27.7107C22.1839 27.8428 22.4876 27.8352 22.7214 27.6916C22.9552 27.548 23.0742 27.2925 23.0266 27.0395L22.1685 22.4447C24.8239 20.2305 26.3371 17.1101 26.3371 13.8244Z" fill="#3581FF"/>
</svg>
